# xmcd
#
# Track frame offsets:
#	150
#	29293
#	42724
#	87854
#	111988
#	129890
#	146928
#	157320
#	176346
#	193674
#	221859
#	245595
#	265317
# Disc length: 3837 seconds
# Revision: 1
# Processed by: cddbd v1.5.2PL0 Copyright (c) Steve Scherf et al.
#
# Submitted via: libkcddb 0.31
#
DISCID=c90efb0d
DTITLE=TED BEARDEN,KENNEY EVANS,JESSE CRAPO,TONG - THE CHAMBERS WAY BAND
DYEAR=1900
DGENRE=
TTITLE0=BREAKDOWN
TTITLE1=CONGRATULATIONS
TTITLE2=FREE BIRD
TTITLE3=I'M AN OLD PIPE LINER
TTITLE4=LAST NIGHT
TTITLE5=LAST NIGHT TAKE 2
TTITLE6=PINS AND NEEDLES
TTITLE7=POOR POOR PITIFUL ME
TTITLE8=SHE'S CRAZY FOR LEAVING
TTITLE9=STATTESBOURGH BLUES
TTITLE10=SWEET HOME ALABAMA
TTITLE11=THEY CALL ME THE BREEZE
TTITLE12=TILL I CAN GAIN CONTROL AGAIN
EXTD=
EXTT0=
EXTT1=
EXTT2=
EXTT3=
EXTT4=
EXTT5=
EXTT6=
EXTT7=
EXTT8=
EXTT9=
EXTT10=
EXTT11=
EXTT12=
PLAYORDER=
